<svg width="150" height="150" fill="none" xmlns="http://www.w3.org/2000/svg"><path d="M148.34 54.8 107.9 22.22a4.46 4.46 0 0 0-5.6 0L90.06 32.1 77.8 22.23a4.46 4.46 0 0 0-5.6 0L59.96 32.1 47.7 22.23a4.46 4.46 0 0 0-5.6 0L1.67 54.8A4.46 4.46 0 0 0 0 58.27v66.02c0 2.46 2 4.46 4.46 4.46h27.76c2.47 0 4.46-2 4.46-4.46v-19.9a8.23 8.23 0 0 1 16.43 0v19.9c0 2.46 2 4.46 4.46 4.46H145.55c2.45 0 4.45-2 4.45-4.46V58.27c0-1.35-.61-2.63-1.66-3.48Zm-67.46 65.03H62.03V104.4c0-9.45-7.68-17.13-17.13-17.13a17.15 17.15 0 0 0-17.13 17.13v15.43H8.92V60.4L44.9 31.43 80.88 60.4v59.43Zm30.1 0H89.8V58.27c0-1.35-.61-2.63-1.66-3.48L67.06 37.82 75 31.43l35.98 28.97v59.43Zm30.1 0H119.9V58.27c0-1.35-.61-2.63-1.66-3.48L97.16 37.82l7.94-6.39 35.98 28.97v59.43Z" fill="#000"/></svg>