<svg width="50" height="50" fill="none" xmlns="http://www.w3.org/2000/svg"><g clip-path="url(#a)" fill="#fff"><path d="m13.03 40.48-1.54.27a.73.73 0 0 1-.85-.6l-.27-1.53a.83.83 0 1 0-1.65.29L9 40.45a2.4 2.4 0 0 0 2.78 1.94l1.54-.27a.83.83 0 1 0-.3-1.64ZM29.15 36.9l-.28-1.54a.83.83 0 0 0-1.64.29l.27 1.54a.73.73 0 0 1-.6.84l-1.53.27a.83.83 0 0 0 .29 1.65l1.54-.28a2.4 2.4 0 0 0 1.95-2.77ZM19.54 5.3l1.54-.28a.73.73 0 0 1 .85.6l.27 1.53a.83.83 0 0 0 1.64-.29l-.27-1.54a2.4 2.4 0 0 0-2.78-1.94l-1.54.27a.84.84 0 1 0 .29 1.64ZM5.65 7.74l1.55-.27a.83.83 0 1 0-.3-1.64l-1.54.27a2.4 2.4 0 0 0-1.94 2.78l.27 1.54a.83.83 0 0 0 1.64-.3L5.06 8.6a.73.73 0 0 1 .6-.85ZM18.24 29.67c.22-.66.24-1.38.05-2.05a5.5 5.5 0 0 0 1.07-.58c.3.27.5.64.57 1.04.43 1.8 1.62 2.38 2.25 2.44h.08c.43 0 .8-.33.84-.76a.82.82 0 0 0-.74-.9c-.02 0-.55-.12-.8-1.17a3.53 3.53 0 0 0-.99-1.8l.18-.23c.17-.25.33-.52.46-.8.4.08.76.3 1.02.61.59.7 1.44 1.11 2.35 1.15.28 0 .56-.05.82-.16.42-.2.6-.7.41-1.12a.82.82 0 0 0-1.09-.41c-.02 0-.54.17-1.28-.6a3.54 3.54 0 0 0-1.75-1.08c.05-.4.06-.8.03-1.2.39-.14.8-.13 1.19.02 1.78.53 2.87-.21 3.23-.73a.85.85 0 0 0-.19-1.18.82.82 0 0 0-1.15.2c-.02.01-.38.41-1.42.1a3.54 3.54 0 0 0-2.05-.04 5.45 5.45 0 0 0-.58-1.07c.27-.3.64-.5 1.05-.57 1.8-.43 2.38-1.62 2.44-2.25a.85.85 0 0 0-.76-.92.82.82 0 0 0-.9.74c0 .02-.12.56-1.17.8-.69.15-1.32.49-1.81.99a5.59 5.59 0 0 0-1.03-.64c.08-.4.3-.76.62-1.02 1.35-1.27 1.25-2.58.98-3.16a.85.85 0 0 0-1.11-.42.82.82 0 0 0-.41 1.1c0 .02.17.54-.61 1.28-.52.46-.9 1.07-1.07 1.75-.4-.06-.81-.07-1.22-.04-.12-.38-.1-.8.04-1.18.53-1.78-.21-2.87-.73-3.23a.85.85 0 0 0-1.18.2.82.82 0 0 0 .2 1.14c.01.02.42.38.1 1.41a3.53 3.53 0 0 0-.04 2.05c-.38.16-.74.35-1.07.58-.3-.27-.51-.64-.58-1.04-.43-1.8-1.61-2.38-2.24-2.44a.85.85 0 0 0-.93.76.82.82 0 0 0 .74.9c.03 0 .56.12.81 1.17.14.68.49 1.3.99 1.8l-.18.22c-.17.26-.33.53-.46.8-.4-.07-.76-.3-1.02-.6-1.28-1.35-2.59-1.26-3.17-1-.42.2-.6.7-.41 1.12a.82.82 0 0 0 1.09.41c.02 0 .54-.17 1.28.6.47.53 1.08.9 1.75 1.08-.05.4-.06.8-.03 1.21-.39.13-.8.12-1.19-.03-1.78-.53-2.87.21-3.23.73a.84.84 0 0 0 .67 1.33.8.8 0 0 0 .66-.34c.02-.02.38-.43 1.42-.12.66.22 1.37.24 2.05.05.15.38.34.74.58 1.07-.27.3-.64.5-1.05.57-1.8.43-2.38 1.62-2.43 2.25-.05.46.29.87.75.92h.08c.43 0 .79-.32.82-.74 0-.03.12-.56 1.17-.81a3.53 3.53 0 0 0 1.8-.98l.23.17c.26.18.53.33.8.47-.07.4-.29.76-.6 1.01-1.36 1.28-1.26 2.59-1 3.17.15.3.45.49.78.49a.82.82 0 0 0 .75-1.17c0-.02-.17-.54.61-1.28.52-.46.9-1.07 1.07-1.75.25.04.5.06.75.06.16 0 .3-.03.46-.04.14.4.13.82-.02 1.2-.53 1.78.21 2.87.73 3.24a.86.86 0 0 0 1.18-.2.82.82 0 0 0-.2-1.15c-.01 0-.42-.37-.11-1.4Zm-5.83-6.48v-.05a3.85 3.85 0 0 1 6.75-3.13l.02.03a3.82 3.82 0 0 1 .84 1.82 3.86 3.86 0 0 1-3.12 4.43l-.04.01a3.86 3.86 0 0 1-4.45-3.11Z"/><path d="M46.69 8.07 28.95 4.76a4.15 4.15 0 0 0-2.27.2l-.26-1.52A4.17 4.17 0 0 0 21.58.06l-18.1 3.2A4.18 4.18 0 0 0 .1 8.07l6.05 34.25a4.18 4.18 0 0 0 4.83 3.38l7.2-1.27a4.15 4.15 0 0 0 2.93 2.18l17.75 3.3a4.16 4.16 0 0 0 4.87-3.33l6.3-33.65a4.17 4.17 0 0 0-3.34-4.87ZM32 35.1l-.3-1.67a7.44 7.44 0 0 0 3-10.83 7.14 7.14 0 0 0-3.3-2.68 7.25 7.25 0 0 1 2.49.02A7.67 7.67 0 0 1 32 35.1Zm-2.25-13.93a5.46 5.46 0 0 1 3.55 2.35 5.77 5.77 0 0 1-1.9 8.19l-1.87-10.57c.08 0 .15.01.22.03ZM10.7 44.07a2.5 2.5 0 0 1-2.9-2.03L1.74 7.79a2.5 2.5 0 0 1 2.03-2.9l18.1-3.18a2.5 2.5 0 0 1 2.9 2.03l6.05 34.24a2.5 2.5 0 0 1-2.03 2.9l-18.1 3.18Zm37.7-31.44-6.3 33.66a2.49 2.49 0 0 1-2.92 2L21.4 44.98a2.47 2.47 0 0 1-1.42-.86l2.52-.44c.14.06.29.1.44.14l1.52.28a.83.83 0 0 0 .98-.67.83.83 0 0 0 0-.27l3.64-.64a4.17 4.17 0 0 0 3.38-4.83l-.16-.9h.17A9.35 9.35 0 0 0 34.2 18.3a9.02 9.02 0 0 0-5.06.54l-1.17-6.62a.83.83 0 0 0 .26-.46l.28-1.52a.71.71 0 0 1 .83-.57l1.52.29a.83.83 0 0 0 .31-1.64l-1.52-.29a2.37 2.37 0 0 0-2.27.85l-.4-2.21c.5-.28 1.09-.38 1.65-.27l17.74 3.3a2.5 2.5 0 0 1 2 2.93Z"/><path d="M40.54 42.26a.83.83 0 0 0-.97.67l-.29 1.52a.71.71 0 0 1-.83.56l-1.52-.28a.83.83 0 0 0-.3 1.64l1.52.28a2.38 2.38 0 0 0 2.78-1.9l.28-1.51a.83.83 0 0 0-.67-.98ZM44.84 10.87l-1.51-.29a.84.84 0 0 0-.31 1.64l1.52.29c.38.07.64.44.57.83l-.29 1.51a.83.83 0 0 0 .82.99c.4 0 .75-.29.82-.68l.29-1.52a2.38 2.38 0 0 0-1.9-2.77ZM40.17 14.83l.16.02c.4 0 .74-.29.82-.68l.14-.76a.83.83 0 0 0-1.64-.3l-.15.75a.83.83 0 0 0 .67.97ZM39.34 15.4a.83.83 0 0 0-.67-.97l-.76-.14a.84.84 0 0 0-.94 1.1c.1.27.34.48.64.53l.76.15.15.01c.4 0 .75-.29.82-.68ZM39.91 16.23a.84.84 0 0 0-.97.66l-.15.76a.83.83 0 0 0 1.65.31l.14-.76a.83.83 0 0 0-.67-.97ZM42.47 15.14l-.76-.15a.83.83 0 0 0-.3 1.64l.76.15.15.01a.83.83 0 0 0 .15-1.65ZM10.68 10.02a.85.85 0 0 0 .68-.36c.13-.18.18-.4.14-.62l-.13-.77a.84.84 0 0 0-1.65.29l.14.77c.07.4.41.69.82.69ZM8.64 11.97c.05 0 .1 0 .14-.02l.77-.13a.84.84 0 1 0-.28-1.65l-.78.14a.83.83 0 0 0 .15 1.66ZM11.08 11.44a.83.83 0 0 0-.68.97l.14.77a.83.83 0 0 0 1.64-.3l-.13-.76a.83.83 0 0 0-.97-.68ZM12.5 11.29c.04 0 .1 0 .14-.02l.77-.13a.83.83 0 1 0-.29-1.65l-.77.14a.83.83 0 0 0 .14 1.66ZM21.83 31.78a.83.83 0 0 0-.68.97l.14.77a.84.84 0 0 0 1.64-.3l-.13-.76a.83.83 0 0 0-.97-.68ZM20.7 34.36l-.78.14a.83.83 0 0 0 .3 1.64l.76-.14a.83.83 0 0 0-.28-1.64ZM22.5 35.63a.83.83 0 0 0-.67.97l.14.77a.83.83 0 1 0 1.64-.3l-.13-.77a.84.84 0 0 0-.97-.67ZM25.52 34.36a.83.83 0 0 0-.97-.68l-.77.14a.83.83 0 1 0 .29 1.64l.77-.13a.83.83 0 0 0 .68-.97ZM35.49 39.87l.15.02c.4 0 .75-.29.82-.68l.14-.76a.83.83 0 0 0-1.64-.3l-.14.75a.83.83 0 0 0 .67.97ZM34.65 40.44a.83.83 0 0 0-.67-.97l-.76-.14a.84.84 0 0 0-.3 1.64l.76.14.15.01c.4 0 .75-.28.82-.68ZM35.22 41.27a.84.84 0 0 0-.97.67l-.14.76a.83.83 0 0 0 1.64.3l.14-.76a.83.83 0 0 0-.67-.97ZM36.05 40.7c-.08.46.22.89.67.97l.76.15.15.01a.83.83 0 0 0 .16-1.65l-.76-.14a.84.84 0 0 0-.98.66Z"/></g><defs><clipPath id="a"><path fill="#fff" d="M0 0h50v50H0z"/></clipPath></defs></svg>