<svg width="30" height="28" fill="none" xmlns="http://www.w3.org/2000/svg"><path d="M24.15 27.42c-.23 0-.47-.07-.67-.2l-7.54-5.12L11.9 25a1.19 1.19 0 0 1-1.85-.65l-2.03-7.7-7.26-2.78a1.19 1.19 0 0 1-.01-2.21L28.35.68A1.19 1.19 0 0 1 29.98 2l-4.66 24.44a1.19 1.19 0 0 1-1.17.97Zm-7.55-7.74 6.72 4.55 3.63-19.02-13.1 12.6 2.72 1.84.03.03Zm-5.59-1.02.9 3.41 1.94-1.4-2.54-1.72a1.18 1.18 0 0 1-.3-.29Zm-6.56-5.92 4.99 1.9c.36.14.63.44.72.81l.64 2.4c.02-.28.15-.54.35-.73l12.48-12-19.18 7.62Z" fill="#fff"/></svg>